<?xml version="1.0" encoding="iso-8859-1"?>
<!-- Uploaded to: SVG Repo, www.svgrepo.com, Generator: SVG Repo Mixer Tools -->
<svg height="800px" width="800px" version="1.1" id="Layer_1" xmlns="http://www.w3.org/2000/svg" xmlns:xlink="http://www.w3.org/1999/xlink" 
	 viewBox="0 0 512 512" xml:space="preserve">
<g>
	<g>
		<g>
			<path style="fill:#a040cc;" d="M266.977,248.047c92.875-76.063,42.696-225.889-75.006-233.256
				C63.94,6.788,2.014,167.677,100.104,248.046L8.151,407.316c-23.157,40.113,5.791,90.178,52.065,90.178h246.652
				c46.309,0,75.21-50.092,52.065-90.178L266.977,248.047z"/>
			<path style="fill:#a040cc;" d="M504.494,414.456l-79.567-137.811c80.957-68.81,35.905-201.275-69.006-207.84
				c-11.762-0.74-21.894,8.202-22.628,19.964c-0.737,11.762,8.202,21.893,19.964,22.63c67.916,4.25,96.351,91.195,42.018,134.387
				c-14.631,11.628-18.563,32.699-9.146,49.012l81.406,140.999c4.888,8.467-1.223,19.024-10.985,19.024h-53.082
				c-11.784,0-21.338,9.554-21.338,21.338s9.554,21.338,21.338,21.338h53.082C499.16,497.494,525.819,451.394,504.494,414.456z"/>
		</g>
	</g>
</g>
</svg>